<?xml version="1.0" standalone="no"?>
<!DOCTYPE svg PUBLIC "-//W3C//DTD SVG 20010904//EN"
 "http://www.w3.org/TR/2001/REC-SVG-20010904/DTD/svg10.dtd">
<svg version="1.0" xmlns="http://www.w3.org/2000/svg"
 width="256.000000pt" height="256.000000pt" viewBox="0 0 256.000000 256.000000"
 preserveAspectRatio="xMidYMid meet">

<g transform="translate(0.000000,256.000000) scale(0.100000,-0.100000)"
fill="#fff" stroke="none">
<path d="M530 2366 c-161 -45 -293 -179 -336 -341 -20 -73 -20 -1417 0 -1490
44 -164 177 -297 341 -341 73 -20 1417 -20 1490 0 164 44 297 177 341 341 11
39 14 196 14 745 0 549 -3 706 -14 745 -44 164 -177 297 -341 341 -70 19
-1427 19 -1495 0z m1308 -488 c8 -8 12 -57 12 -156 l0 -144 -255 -261 -254
-262 265 -5 c221 -4 266 -7 274 -20 15 -23 13 -333 -2 -348 -17 -17 -1179 -17
-1196 0 -8 8 -12 60 -12 169 l0 157 246 251 246 251 -211 0 -211 0 -15 24
c-23 35 -18 332 5 346 24 15 1093 13 1108 -2z"/>
</g>
</svg>
